<svg width="200" height="200" viewBox="0 0 200 200" fill="none" xmlns="http://www.w3.org/2000/svg">
<g clip-path="url(#clip0_4091_50025)">
<mask id="mask0_4091_50025" style="mask-type:luminance" maskUnits="userSpaceOnUse" x="-4" y="-1" width="201" height="201">
<path d="M196.656 -0.5H-3.5V199.5H196.656V-0.5Z" fill="white"/>
</mask>
<g mask="url(#mask0_4091_50025)">
<path d="M31.7358 191.721C42.0167 191.721 50.351 183.393 50.351 173.12C50.351 162.848 42.0167 154.52 31.7358 154.52C21.4549 154.52 13.1206 162.848 13.1206 173.12C13.1206 183.393 21.4549 191.721 31.7358 191.721Z" fill="#E2F3FF"/>
<path d="M15.114 200.098C25.3948 200.098 33.7291 191.77 33.7291 181.497C33.7291 171.225 25.3948 162.897 15.114 162.897C4.83308 162.897 -3.50122 171.225 -3.50122 181.497C-3.50122 191.77 4.83308 200.098 15.114 200.098Z" fill="#E2F3FF"/>
<path d="M57.7656 69.5077L58.1323 33.3109L60.1133 69.5814" fill="#A9D2FF"/>
<path d="M51.823 69.4993L66.0357 85.634V87.384L51.8399 71.0491L51.823 69.5014V69.4993Z" fill="#A9D2FF"/>
<path d="M66.0357 69.4993L51.823 85.634V87.384L66.0188 71.0491L66.0357 69.5014V69.4993Z" fill="#A9D2FF"/>
<path d="M66.1073 87.3818H51.823V88.6432H66.1073V87.3818Z" fill="#A9D2FF"/>
<path d="M51.823 88.6391L66.0357 104.772V106.522L51.8399 90.189L51.823 88.6412V88.6391Z" fill="#A9D2FF"/>
<path d="M66.0357 88.6391L51.823 104.772V106.522L66.0188 90.189L66.0357 88.6412V88.6391Z" fill="#A9D2FF"/>
<path d="M66.1073 106.522H51.823V107.783H66.1073V106.522Z" fill="#A9D2FF"/>
<path d="M51.823 107.779L66.0357 123.914V125.664L51.8399 109.329L51.823 107.781V107.779Z" fill="#A9D2FF"/>
<path d="M66.0357 107.779L51.823 123.914V125.664L66.0188 109.329L66.0357 107.781V107.779Z" fill="#A9D2FF"/>
<path d="M66.1073 125.661H51.823V126.923H66.1073V125.661Z" fill="#A9D2FF"/>
<path d="M51.823 126.921L66.0357 143.053V144.803L51.8399 128.471L51.823 126.923V126.921Z" fill="#A9D2FF"/>
<path d="M66.0357 126.921L51.823 143.053V144.803L66.0188 128.471L66.0357 126.923V126.921Z" fill="#A9D2FF"/>
<path d="M66.1073 144.801H51.823V146.063H66.1073V144.801Z" fill="#A9D2FF"/>
<path d="M51.823 146.06L66.0357 162.193V163.943L51.8399 147.61L51.823 146.063V146.06Z" fill="#A9D2FF"/>
<path d="M66.0357 146.06L51.823 162.193V163.943L66.0188 147.61L66.0357 146.063V146.06Z" fill="#A9D2FF"/>
<path d="M117.939 187.154C150.51 187.154 176.914 160.77 176.914 128.224C176.914 95.6787 150.51 69.2952 117.939 69.2952C85.3679 69.2952 58.9639 95.6787 58.9639 128.224C58.9639 160.77 85.3679 187.154 117.939 187.154Z" fill="#E2F3FF"/>
<path d="M166.893 116.364C169.079 116.364 170.851 114.594 170.851 112.41C170.851 110.226 169.079 108.455 166.893 108.455C164.707 108.455 162.935 110.226 162.935 112.41C162.935 114.594 164.707 116.364 166.893 116.364Z" fill="white"/>
<path d="M84.8011 186.32C101.496 186.32 115.031 172.796 115.031 156.114C115.031 139.432 101.496 125.908 84.8011 125.908C68.1059 125.908 54.5718 139.432 54.5718 156.114C54.5718 172.796 68.1059 186.32 84.8011 186.32Z" fill="white"/>
<path d="M174.284 138.581C182.609 138.581 189.359 131.837 189.359 123.518C189.359 115.199 182.609 108.455 174.284 108.455C165.958 108.455 159.209 115.199 159.209 123.518C159.209 131.837 165.958 138.581 174.284 138.581Z" fill="white"/>
<path d="M175.732 145.319C185.059 145.319 192.621 137.764 192.621 128.443C192.621 119.123 185.059 111.567 175.732 111.567C166.404 111.567 158.843 119.123 158.843 128.443C158.843 137.764 166.404 145.319 175.732 145.319Z" fill="#E2F3FF"/>
<path d="M178.259 185.456C194.589 185.456 207.826 172.229 207.826 155.912C207.826 139.595 194.589 126.367 178.259 126.367C161.929 126.367 148.691 139.595 148.691 155.912C148.691 172.229 161.929 185.456 178.259 185.456Z" fill="white"/>
<path d="M117.939 168.555C117.939 146.808 100.296 129.178 78.5319 129.178C56.7682 129.178 39.1245 146.808 39.1245 168.555C39.1245 174.333 40.37 179.821 42.6081 184.766H114.453C116.692 179.821 117.937 174.333 117.937 168.555H117.939Z" fill="#E2F3FF"/>
<path d="M74.1313 240.203C87.706 240.203 98.7106 229.207 98.7106 215.643C98.7106 202.079 87.706 191.083 74.1313 191.083C60.5565 191.083 49.552 202.079 49.552 215.643C49.552 229.207 60.5565 240.203 74.1313 240.203Z" fill="white"/>
<path d="M157.226 149.857C161.317 149.857 164.634 146.543 164.634 142.455C164.634 138.367 161.317 135.054 157.226 135.054C153.135 135.054 149.819 138.367 149.819 142.455C149.819 146.543 153.135 149.857 157.226 149.857Z" fill="#E2F3FF"/>
<path d="M174.284 136.563C175.415 136.563 176.332 135.647 176.332 134.517C176.332 133.386 175.415 132.47 174.284 132.47C173.152 132.47 172.235 133.386 172.235 134.517C172.235 135.647 173.152 136.563 174.284 136.563Z" fill="#E2F3FF"/>
<path d="M166.385 203.823C184.054 203.823 198.378 189.51 198.378 171.855C198.378 154.199 184.054 139.886 166.385 139.886C148.715 139.886 134.392 154.199 134.392 171.855C134.392 189.51 148.715 203.823 166.385 203.823Z" fill="#E2F3FF"/>
<path d="M164.634 146.326C167.077 146.326 169.057 144.347 169.057 141.906C169.057 139.465 167.077 137.486 164.634 137.486C162.19 137.486 160.21 139.465 160.21 141.906C160.21 144.347 162.19 146.326 164.634 146.326Z" fill="#E2F3FF"/>
<path d="M170.594 218.766C191.443 218.766 208.345 201.878 208.345 181.045C208.345 160.212 191.443 143.323 170.594 143.323C149.745 143.323 132.843 160.212 132.843 181.045C132.843 201.878 149.745 218.766 170.594 218.766Z" fill="white"/>
<path d="M143.773 245.853C170.609 245.853 192.364 225.1 192.364 199.5C192.364 173.9 170.609 153.147 143.773 153.147C116.936 153.147 95.1809 173.9 95.1809 199.5C95.1809 225.1 116.936 245.853 143.773 245.853Z" fill="#E2F3FF"/>
<path d="M145.286 179.341C155.713 179.341 164.166 171.278 164.166 161.332C164.166 151.386 155.713 143.323 145.286 143.323C134.858 143.323 126.405 151.386 126.405 161.332C126.405 171.278 134.858 179.341 145.286 179.341Z" fill="#E2F3FF"/>
<path d="M161.059 163.434C164.419 163.434 167.143 160.835 167.143 157.63C167.143 154.425 164.419 151.826 161.059 151.826C157.699 151.826 154.975 154.425 154.975 157.63C154.975 160.835 157.699 163.434 161.059 163.434Z" fill="#E2F3FF"/>
<path d="M145.564 215.643C160.821 215.643 173.189 203.285 173.189 188.04C173.189 172.795 160.821 160.437 145.564 160.437C130.307 160.437 117.939 172.795 117.939 188.04C117.939 203.285 130.307 215.643 145.564 215.643Z" fill="#E2F3FF"/>
<path d="M144.849 279.704C178.346 279.704 205.501 252.57 205.501 219.099C205.501 185.627 178.346 158.493 144.849 158.493C111.351 158.493 84.196 185.627 84.196 219.099C84.196 252.57 111.351 279.704 144.849 279.704Z" fill="white"/>
<path d="M117.691 16.1342C116.885 16.1342 116.078 16.4774 115.52 17.1639C111.113 22.5674 101.537 36.2868 101.537 53.4471V145.406H112.595V42.2315C112.595 27.8825 117.691 16.1342 117.691 16.1342Z" fill="#E2F3FF"/>
<path d="M119.861 17.164C119.3 16.4775 118.495 16.1343 117.69 16.1343C117.69 16.1343 112.594 27.8826 112.594 42.2317V145.404H133.846V53.4452C133.846 36.2848 124.27 22.5654 119.863 17.1619L119.861 17.164Z" fill="white"/>
<path d="M101.486 61.8724V62.6516C104.971 60.969 108.702 59.815 112.596 59.2696V58.4905C108.702 59.0359 104.973 60.192 101.486 61.8724Z" fill="white"/>
<path d="M117.743 58.1282C116 58.1282 114.282 58.2525 112.594 58.4883V59.2675C114.282 59.0316 116 58.9074 117.743 58.9074C123.471 58.9074 128.927 60.2214 133.896 62.601V61.8218C128.927 59.4423 123.469 58.1282 117.743 58.1282Z" fill="white"/>
<path d="M101.485 61.2238C106.482 58.8126 111.976 57.4818 117.742 57.4818C123.508 57.4818 128.926 58.7958 133.896 61.1754V61.9545C128.926 59.5749 123.468 58.2609 117.742 58.2609C112.016 58.2609 106.482 59.5939 101.485 62.0029V61.2238Z" fill="#E2F3FF"/>
<path d="M101.486 118.645V119.425C104.971 117.742 108.702 116.588 112.596 116.043V115.264C108.702 115.809 104.973 116.965 101.486 118.645Z" fill="white"/>
<path d="M117.743 114.903C116 114.903 114.282 115.028 112.594 115.264V116.043C114.282 115.807 116 115.683 117.743 115.683C123.471 115.683 128.927 116.997 133.896 119.376V118.597C128.927 116.217 123.469 114.903 117.743 114.903Z" fill="white"/>
<path d="M101.485 117.999C106.482 115.588 111.976 114.257 117.742 114.257C123.508 114.257 128.926 115.571 133.896 117.95V118.73C128.926 116.35 123.468 115.036 117.742 115.036C112.016 115.036 106.482 116.369 101.485 118.778V117.999Z" fill="#E2F3FF"/>
<path d="M114.847 56.1909C115.337 56.1909 115.734 55.794 115.734 55.3043C115.734 54.8147 115.337 54.4178 114.847 54.4178C114.357 54.4178 113.96 54.8147 113.96 55.3043C113.96 55.794 114.357 56.1909 114.847 56.1909Z" fill="#E2F3FF"/>
<path d="M110.5 63.5381C110.99 63.5381 111.387 63.1411 111.387 62.6515C111.387 62.1619 110.99 61.765 110.5 61.765C110.01 61.765 109.613 62.1619 109.613 62.6515C109.613 63.1411 110.01 63.5381 110.5 63.5381Z" fill="white"/>
<path d="M106.208 90.1786C104.143 89.787 102.01 89.5785 99.8311 89.5785C99.064 89.5785 98.3074 89.6143 97.553 89.6627V169.564C98.3011 169.482 99.0598 169.437 99.8311 169.437C102.111 169.437 104.303 169.806 106.358 170.482V93.3963C106.358 92.3203 106.307 91.2463 106.208 90.1765V90.1786Z" fill="#E2F3FF"/>
<path d="M93.4524 90.1786C93.3533 91.2463 93.3027 92.3203 93.3027 93.3963V170.48C94.662 170.033 96.0846 169.724 97.5514 169.564V89.6627C96.1605 89.7554 94.7906 89.9238 93.4524 90.1786Z" fill="#A9D2FF"/>
<path d="M96.9783 119.224C97.0923 119.224 97.1848 119.132 97.1848 119.018C97.1848 118.904 97.0923 118.811 96.9783 118.811C96.8642 118.811 96.7717 118.904 96.7717 119.018C96.7717 119.132 96.8642 119.224 96.9783 119.224Z" fill="#E2F3FF"/>
<path d="M97.553 98.2228V98.4481C98.3854 98.4039 99.123 98.3829 99.8311 98.3829C102.01 98.3829 104.196 98.5387 106.358 98.844V98.6187C104.196 98.3113 102.01 98.1575 99.8311 98.1575C99.123 98.1575 98.3854 98.1786 97.553 98.2228Z" fill="white"/>
<path d="M96.738 98.2713C95.5683 98.3492 94.4219 98.4713 93.3049 98.6272V98.8525C94.424 98.6966 95.5683 98.5745 96.738 98.4966C97.0204 98.4776 97.2901 98.4608 97.5536 98.4482V98.2228C97.2922 98.2376 97.0204 98.2523 96.738 98.2713Z" fill="#E2F3FF"/>
<path d="M96.7211 98.0123C95.5578 98.0902 94.4177 98.2102 93.3049 98.3639V98.6272C94.424 98.4713 95.5683 98.3492 96.738 98.2713C97.0204 98.2523 97.2901 98.2355 97.5536 98.2228V97.9617C97.2859 97.9765 97.0098 97.9933 96.7211 98.0123Z" fill="#5762FC"/>
<path d="M99.8311 97.8964C99.123 97.8964 98.3833 97.9175 97.553 97.9617V98.2228C98.3854 98.1786 99.123 98.1575 99.8311 98.1575C102.01 98.1575 104.196 98.3134 106.358 98.6187V98.3555C104.196 98.0501 102.01 97.8964 99.8311 97.8964Z" fill="#A9D2FF"/>
<path d="M96.9783 99.2357C97.0923 99.2357 97.1848 99.1433 97.1848 99.0294C97.1848 98.9154 97.0923 98.823 96.9783 98.823C96.8642 98.823 96.7717 98.9154 96.7717 99.0294C96.7717 99.1433 96.8642 99.2357 96.9783 99.2357Z" fill="#E2F3FF"/>
<path d="M98.1208 97.6564C98.2349 97.6564 98.3274 97.564 98.3274 97.45C98.3274 97.336 98.2349 97.2437 98.1208 97.2437C98.0068 97.2437 97.9143 97.336 97.9143 97.45C97.9143 97.564 98.0068 97.6564 98.1208 97.6564Z" fill="white"/>
<path d="M97.5527 125.101V125.327C98.3852 125.283 99.1228 125.262 99.8309 125.262C102.01 125.262 104.195 125.417 106.358 125.723V125.497C104.195 125.19 102.01 125.036 99.8309 125.036C99.1228 125.036 98.3852 125.057 97.5527 125.101Z" fill="white"/>
<path d="M96.7377 125.152C95.5681 125.23 94.4216 125.352 93.3047 125.508V125.733C94.4237 125.577 95.5681 125.455 96.7377 125.377C97.0201 125.358 97.2899 125.342 97.5533 125.329V125.104C97.292 125.118 97.0201 125.133 96.7377 125.152Z" fill="#E2F3FF"/>
<path d="M96.7209 124.891C95.5576 124.969 94.4174 125.089 93.3047 125.243V125.506C94.4237 125.35 95.5681 125.228 96.7377 125.15C97.0201 125.131 97.2899 125.114 97.5533 125.102V124.84C97.2857 124.855 97.0096 124.872 96.7209 124.891Z" fill="#5762FC"/>
<path d="M99.8309 124.775C99.1228 124.775 98.3831 124.796 97.5527 124.84V125.101C98.3852 125.057 99.1228 125.036 99.8309 125.036C102.01 125.036 104.195 125.192 106.358 125.497V125.234C104.195 124.929 102.01 124.775 99.8309 124.775Z" fill="#A9D2FF"/>
<path d="M96.9783 126.114C97.0923 126.114 97.1848 126.022 97.1848 125.908C97.1848 125.794 97.0923 125.702 96.9783 125.702C96.8642 125.702 96.7717 125.794 96.7717 125.908C96.7717 126.022 96.8642 126.114 96.9783 126.114Z" fill="#E2F3FF"/>
<path d="M98.1206 124.535C98.2347 124.535 98.3271 124.443 98.3271 124.329C98.3271 124.215 98.2347 124.122 98.1206 124.122C98.0065 124.122 97.9141 124.215 97.9141 124.329C97.9141 124.443 98.0065 124.535 98.1206 124.535Z" fill="white"/>
<path d="M97.5527 151.982V152.207C98.3852 152.163 99.1228 152.142 99.8309 152.142C102.01 152.142 104.195 152.298 106.358 152.603V152.378C104.195 152.071 102.01 151.917 99.8309 151.917C99.1228 151.917 98.3852 151.938 97.5527 151.982Z" fill="white"/>
<path d="M96.7377 152.031C95.5681 152.109 94.4216 152.231 93.3047 152.387V152.612C94.4237 152.456 95.5681 152.334 96.7377 152.256C97.0201 152.237 97.2899 152.22 97.5533 152.208V151.982C97.292 151.997 97.0201 152.012 96.7377 152.031Z" fill="#E2F3FF"/>
<path d="M96.7209 151.772C95.5576 151.85 94.4174 151.97 93.3047 152.123V152.387C94.4237 152.231 95.5681 152.109 96.7377 152.031C97.0201 152.012 97.2899 151.995 97.5533 151.982V151.721C97.2857 151.736 97.0096 151.753 96.7209 151.772Z" fill="#5762FC"/>
<path d="M99.8309 151.654C99.1228 151.654 98.3831 151.675 97.5527 151.719V151.98C98.3852 151.936 99.1228 151.915 99.8309 151.915C102.01 151.915 104.195 152.071 106.358 152.376V152.113C104.195 151.807 102.01 151.654 99.8309 151.654Z" fill="#A9D2FF"/>
<path d="M96.9783 152.995C97.0923 152.995 97.1848 152.903 97.1848 152.789C97.1848 152.675 97.0923 152.582 96.9783 152.582C96.8642 152.582 96.7717 152.675 96.7717 152.789C96.7717 152.903 96.8642 152.995 96.9783 152.995Z" fill="#E2F3FF"/>
<path d="M98.1206 151.416C98.2347 151.416 98.3271 151.323 98.3271 151.209C98.3271 151.095 98.2347 151.003 98.1206 151.003C98.0065 151.003 97.9141 151.095 97.9141 151.209C97.9141 151.323 98.0065 151.416 98.1206 151.416Z" fill="white"/>
<path d="M98.1208 105.389C98.2349 105.389 98.3274 105.297 98.3274 105.183C98.3274 105.069 98.2349 104.976 98.1208 104.976C98.0068 104.976 97.9143 105.069 97.9143 105.183C97.9143 105.297 98.0068 105.389 98.1208 105.389Z" fill="white"/>
<path d="M98.1208 113.119C98.2349 113.119 98.3274 113.027 98.3274 112.913C98.3274 112.799 98.2349 112.707 98.1208 112.707C98.0068 112.707 97.9143 112.799 97.9143 112.913C97.9143 113.027 98.0068 113.119 98.1208 113.119Z" fill="white"/>
<path d="M97.554 89.6628C98.3084 89.6123 99.065 89.5786 99.8321 89.5786C102.013 89.5786 104.144 89.787 106.209 90.1787C105.914 86.9968 105.185 83.8655 104.034 80.8731L101.299 73.7597C101.107 73.2627 100.728 72.951 100.298 72.8226C99.3874 75.1179 97.554 80.8352 97.554 89.6544V89.6628Z" fill="white"/>
<path d="M104.722 82.8527C104.7 82.7874 104.679 82.7221 104.658 82.6568C104.658 82.6526 104.656 82.6484 104.654 82.6421C104.618 82.5347 104.585 82.4252 104.549 82.3178C102.979 82.1767 101.404 82.1009 99.8322 82.1009C99.259 82.1009 98.6647 82.1135 98.0304 82.1388C98.6373 77.5228 99.6784 74.381 100.298 72.8227C99.5667 72.6015 98.69 72.9132 98.3655 73.7597L95.63 80.8732C95.4403 81.3681 95.2654 81.8671 95.0989 82.3683C95.0799 82.4252 95.0631 82.4799 95.0441 82.5368C95.0083 82.6463 94.9724 82.7558 94.9366 82.8653C94.9029 82.9727 94.865 83.0801 94.8334 83.1896C94.1358 85.466 93.6743 87.8076 93.4551 90.1788C94.7954 89.924 96.1653 89.7576 97.5541 89.6629V89.6544C97.5541 87.1885 97.6995 84.9753 97.9271 83.0022C98.6057 82.9769 99.2337 82.9622 99.8322 82.9622C101.449 82.9622 103.128 83.0359 104.827 83.177C104.793 83.0674 104.757 82.9601 104.722 82.8506V82.8527Z" fill="#E2F3FF"/>
<path d="M106.359 97.3848C106.359 97.3848 100.119 102.614 100.119 112.45C100.119 128.606 99.4275 163.64 99.4275 163.64L107.771 162.097L106.359 97.3848Z" fill="url(#paint0_linear_4091_50025)"/>
<path d="M143.621 84.5813C141.555 84.1896 139.423 83.9811 137.243 83.9811C136.476 83.9811 135.72 84.0169 134.965 84.0654V163.966C135.713 163.884 136.472 163.84 137.243 163.84C139.524 163.84 141.716 164.209 143.77 164.885V87.799C143.77 86.7229 143.72 85.6489 143.621 84.5792V84.5813Z" fill="#E2F3FF"/>
<path d="M130.865 84.5812C130.766 85.6489 130.715 86.7229 130.715 87.7989V164.882C132.074 164.436 133.497 164.126 134.964 163.966V84.0653C133.573 84.158 132.203 84.3264 130.865 84.5812Z" fill="#A9D2FF"/>
<path d="M134.391 113.627C134.505 113.627 134.597 113.534 134.597 113.42C134.597 113.306 134.505 113.214 134.391 113.214C134.277 113.214 134.184 113.306 134.184 113.42C134.184 113.534 134.277 113.627 134.391 113.627Z" fill="#E2F3FF"/>
<path d="M134.965 92.6255V92.8508C135.798 92.8066 136.535 92.7855 137.243 92.7855C139.423 92.7855 141.608 92.9413 143.77 93.2467V93.0213C141.608 92.7139 139.423 92.5602 137.243 92.5602C136.535 92.5602 135.798 92.5812 134.965 92.6255Z" fill="white"/>
<path d="M134.15 92.6739C132.981 92.7518 131.834 92.874 130.717 93.0298V93.2551C131.836 93.0993 132.981 92.9772 134.15 92.8992C134.433 92.8803 134.702 92.8634 134.966 92.8508V92.6255C134.705 92.6402 134.433 92.655 134.15 92.6739Z" fill="#E2F3FF"/>
<path d="M134.133 92.4149C132.97 92.4928 131.83 92.6129 130.717 92.7666V93.0298C131.836 92.874 132.981 92.7518 134.15 92.6739C134.433 92.655 134.702 92.6381 134.966 92.6255V92.3644C134.698 92.3791 134.422 92.396 134.133 92.4149Z" fill="#5762FC"/>
<path d="M137.243 92.2991C136.535 92.2991 135.796 92.3201 134.965 92.3644V92.6255C135.798 92.5813 136.535 92.5602 137.243 92.5602C139.423 92.5602 141.608 92.716 143.77 93.0214V92.7581C141.608 92.4528 139.423 92.2991 137.243 92.2991Z" fill="#A9D2FF"/>
<path d="M134.391 93.6384C134.505 93.6384 134.597 93.546 134.597 93.432C134.597 93.318 134.505 93.2256 134.391 93.2256C134.277 93.2256 134.184 93.318 134.184 93.432C134.184 93.546 134.277 93.6384 134.391 93.6384Z" fill="#E2F3FF"/>
<path d="M135.533 92.059C135.647 92.059 135.74 91.9666 135.74 91.8527C135.74 91.7387 135.647 91.6463 135.533 91.6463C135.419 91.6463 135.327 91.7387 135.327 91.8527C135.327 91.9666 135.419 92.059 135.533 92.059Z" fill="white"/>
<path d="M134.966 119.504V119.73C135.798 119.685 136.536 119.664 137.244 119.664C139.423 119.664 141.609 119.82 143.771 120.125V119.9C141.609 119.593 139.423 119.439 137.244 119.439C136.536 119.439 135.798 119.46 134.966 119.504Z" fill="white"/>
<path d="M134.151 119.555C132.981 119.633 131.834 119.755 130.718 119.911V120.136C131.837 119.98 132.981 119.858 134.151 119.78C134.433 119.761 134.703 119.744 134.966 119.732V119.506C134.705 119.521 134.433 119.536 134.151 119.555Z" fill="#E2F3FF"/>
<path d="M134.134 119.294C132.97 119.372 131.83 119.492 130.718 119.645V119.909C131.837 119.753 132.981 119.631 134.151 119.553C134.433 119.534 134.703 119.517 134.966 119.504V119.243C134.699 119.258 134.422 119.275 134.134 119.294Z" fill="#5762FC"/>
<path d="M137.244 119.178C136.536 119.178 135.796 119.199 134.966 119.243V119.504C135.798 119.46 136.536 119.439 137.244 119.439C139.423 119.439 141.609 119.595 143.771 119.9V119.637C141.609 119.332 139.423 119.178 137.244 119.178Z" fill="#A9D2FF"/>
<path d="M134.391 120.517C134.505 120.517 134.598 120.425 134.598 120.311C134.598 120.197 134.505 120.104 134.391 120.104C134.277 120.104 134.185 120.197 134.185 120.311C134.185 120.425 134.277 120.517 134.391 120.517Z" fill="#E2F3FF"/>
<path d="M135.533 118.938C135.647 118.938 135.74 118.845 135.74 118.731C135.74 118.617 135.647 118.525 135.533 118.525C135.419 118.525 135.327 118.617 135.327 118.731C135.327 118.845 135.419 118.938 135.533 118.938Z" fill="white"/>
<path d="M134.966 146.385V146.61C135.798 146.566 136.536 146.545 137.244 146.545C139.423 146.545 141.609 146.701 143.771 147.006V146.781C141.609 146.473 139.423 146.32 137.244 146.32C136.536 146.32 135.798 146.341 134.966 146.385Z" fill="white"/>
<path d="M134.151 146.433C132.981 146.511 131.834 146.633 130.718 146.789V147.015C131.837 146.859 132.981 146.737 134.151 146.659C134.433 146.64 134.703 146.623 134.966 146.61V146.385C134.705 146.4 134.433 146.414 134.151 146.433Z" fill="#E2F3FF"/>
<path d="M134.134 146.174C132.97 146.252 131.83 146.372 130.718 146.526V146.789C131.837 146.633 132.981 146.511 134.151 146.433C134.433 146.414 134.703 146.398 134.966 146.385V146.124C134.699 146.139 134.422 146.155 134.134 146.174Z" fill="#5762FC"/>
<path d="M137.244 146.056C136.536 146.056 135.796 146.077 134.966 146.122V146.383C135.798 146.339 136.536 146.318 137.244 146.318C139.423 146.318 141.609 146.473 143.771 146.779V146.515C141.609 146.21 139.423 146.056 137.244 146.056Z" fill="#A9D2FF"/>
<path d="M134.391 147.398C134.505 147.398 134.598 147.305 134.598 147.191C134.598 147.077 134.505 146.985 134.391 146.985C134.277 146.985 134.185 147.077 134.185 147.191C134.185 147.305 134.277 147.398 134.391 147.398Z" fill="#E2F3FF"/>
<path d="M135.533 145.819C135.647 145.819 135.74 145.726 135.74 145.612C135.74 145.498 135.647 145.406 135.533 145.406C135.419 145.406 135.327 145.498 135.327 145.612C135.327 145.726 135.419 145.819 135.533 145.819Z" fill="white"/>
<path d="M135.533 99.7916C135.647 99.7916 135.74 99.6993 135.74 99.5853C135.74 99.4713 135.647 99.3789 135.533 99.3789C135.419 99.3789 135.327 99.4713 135.327 99.5853C135.327 99.6993 135.419 99.7916 135.533 99.7916Z" fill="white"/>
<path d="M135.533 107.522C135.647 107.522 135.74 107.43 135.74 107.316C135.74 107.202 135.647 107.109 135.533 107.109C135.419 107.109 135.327 107.202 135.327 107.316C135.327 107.43 135.419 107.522 135.533 107.522Z" fill="white"/>
<path d="M134.964 84.0652C135.719 84.0147 136.475 83.981 137.243 83.981C139.424 83.981 141.554 84.1894 143.62 84.5811C143.325 81.3992 142.595 78.2679 141.445 75.2755L138.709 68.1621C138.518 67.6651 138.138 67.3534 137.708 67.225C136.798 69.5203 134.964 75.2376 134.964 84.0568V84.0652Z" fill="white"/>
<path d="M142.132 77.2551C142.111 77.1898 142.09 77.1245 142.069 77.0592C142.069 77.055 142.067 77.0508 142.065 77.0445C142.029 76.9371 141.995 76.8276 141.959 76.7202C140.389 76.5791 138.815 76.5033 137.243 76.5033C136.669 76.5033 136.075 76.5159 135.441 76.5412C136.048 71.9252 137.089 68.7834 137.708 67.2251C136.977 67.0039 136.1 67.3156 135.776 68.1621L133.04 75.2756C132.851 75.7705 132.676 76.2695 132.509 76.7707C132.49 76.8276 132.473 76.8823 132.455 76.9392C132.419 77.0487 132.383 77.1582 132.347 77.2677C132.313 77.3751 132.275 77.4825 132.244 77.592C131.546 79.8684 131.085 82.2101 130.865 84.5812C132.206 84.3264 133.576 84.16 134.964 84.0653V84.0569C134.964 81.5909 135.11 79.3777 135.338 77.4046C136.016 77.3793 136.644 77.3646 137.243 77.3646C138.859 77.3646 140.539 77.4383 142.237 77.5794C142.204 77.4699 142.168 77.3625 142.132 77.253V77.2551Z" fill="#E2F3FF"/>
<path d="M126.757 158.801L126.403 96.216C125.604 91.2884 124.816 86.6598 124.344 84.8403C123.234 80.5592 120.06 71.2031 115.933 72.6308C111.807 74.0586 104.349 94.9904 104.349 102.919V178.878L130.757 178.404C129.571 172.335 128.203 166.832 127.417 163.821C126.989 162.181 126.766 160.498 126.757 158.803V158.801Z" fill="white"/>
<path d="M86.5598 177.675C86.5598 177.705 86.5598 177.726 86.5598 177.751C86.5598 177.61 86.564 177.471 86.5661 177.351C86.564 177.465 86.5619 177.574 86.5598 177.675Z" fill="white"/>
<path d="M86.5598 177.675C86.5598 177.705 86.5598 177.726 86.5598 177.751C86.5598 177.61 86.564 177.471 86.5661 177.351C86.564 177.465 86.5619 177.574 86.5598 177.675Z" fill="#E2F3FF"/>
<path d="M104.34 176.907L104.096 176.919C104.172 177.578 104.235 178.256 104.288 178.949H104.349L104.34 176.909V176.907Z" fill="white"/>
<path d="M104.096 176.919L104.34 176.907L104.096 176.913C104.096 176.913 104.096 176.917 104.096 176.919Z" fill="white"/>
<path d="M95.1562 155.743C95.3312 155.512 95.5082 155.282 95.6852 155.052C95.5082 155.282 95.3333 155.514 95.1562 155.743Z" fill="white"/>
<path d="M110.619 178.764L130.758 178.402C129.571 172.333 128.203 166.83 127.417 163.819C126.989 162.179 126.766 160.496 126.758 158.801L126.403 96.216C125.605 91.2883 124.817 86.6598 124.345 84.8403C123.247 80.6119 120.138 71.4431 116.087 72.5887C114.347 79.1209 110.619 85.2362 110.619 98.9177V178.762V178.764Z" fill="white"/>
<path d="M154.178 164.632C154.211 164.811 154.243 164.988 154.275 165.16C154.243 164.986 154.211 164.811 154.178 164.632Z" fill="white"/>
<path d="M135.367 142.506C135.232 142.388 135.103 142.266 134.975 142.144V150.959C134.975 159.831 139.898 167.986 146.964 170.553L154.724 167.761C154.61 167.068 154.462 166.197 154.287 165.232C152.698 162.625 151.895 160.387 150.034 157.04C148.336 153.985 139.697 146.273 135.367 142.506Z" fill="white"/>
<path d="M134.973 150.959V142.144C133.521 140.775 132.389 139.105 131.664 137.242C131.295 136.294 131.036 135.308 130.893 134.302L130.09 128.74C130.048 128.441 130.14 128.14 130.343 127.919C130.57 127.671 130.678 127.334 130.636 126.997L127.877 105.429C127.89 105.507 127.902 105.583 127.915 105.661C127.466 102.866 126.933 99.4758 126.404 96.216L126.758 158.801C126.768 160.496 126.99 162.179 127.417 163.819C128.121 166.515 129.291 171.213 130.381 176.521L146.964 170.553C139.896 167.986 134.975 159.831 134.975 150.959H134.973Z" fill="#E2F3FF"/>
<path d="M130.635 126.997C130.678 127.332 130.572 127.668 130.342 127.919C130.138 128.142 130.045 128.443 130.09 128.74L130.892 134.302C131.038 135.308 131.297 136.294 131.664 137.241C132.387 139.105 133.52 140.777 134.973 142.144V138.29C134.505 137.745 134.172 137.305 134.026 137.012C132.758 134.474 129.582 114.337 128.947 111.639C128.935 111.588 128.922 111.534 128.909 111.473C128.905 111.454 128.901 111.43 128.897 111.412C128.888 111.367 128.878 111.325 128.869 111.275C128.863 111.243 128.857 111.209 128.85 111.176C128.842 111.131 128.834 111.089 128.823 111.041C128.817 111.005 128.808 110.963 128.802 110.925C128.793 110.877 128.783 110.83 128.774 110.78C128.766 110.733 128.758 110.685 128.747 110.637C128.739 110.588 128.73 110.54 128.72 110.489C128.711 110.441 128.703 110.39 128.692 110.342C128.682 110.281 128.671 110.22 128.659 110.154C128.65 110.112 128.644 110.068 128.635 110.024C128.623 109.952 128.61 109.878 128.597 109.803C128.589 109.756 128.581 109.71 128.572 109.662C128.56 109.584 128.545 109.504 128.532 109.424C128.524 109.373 128.515 109.32 128.507 109.27C128.492 109.19 128.479 109.108 128.465 109.024C128.456 108.967 128.446 108.91 128.435 108.853C128.42 108.769 128.408 108.684 128.393 108.598C128.383 108.535 128.372 108.472 128.361 108.409C128.349 108.329 128.334 108.249 128.321 108.166C128.309 108.093 128.296 108.017 128.283 107.941C128.269 107.851 128.254 107.76 128.239 107.667C128.229 107.608 128.22 107.547 128.21 107.488C128.193 107.389 128.176 107.286 128.159 107.185C128.149 107.116 128.136 107.046 128.125 106.977C128.109 106.871 128.092 106.764 128.073 106.657C128.062 106.593 128.052 106.528 128.041 106.463C128.026 106.37 128.012 106.278 127.997 106.183C127.982 106.086 127.965 105.989 127.95 105.892C127.938 105.816 127.925 105.741 127.915 105.665C127.902 105.587 127.889 105.511 127.877 105.433L130.635 127.001V126.997Z" fill="#A9D2FF"/>
<path d="M135.367 142.506C139.7 146.271 148.336 153.983 150.035 157.04C151.895 160.389 152.698 162.627 154.287 165.232C154.283 165.209 154.279 165.186 154.275 165.16C154.243 164.986 154.212 164.811 154.178 164.632C154.169 164.586 154.161 164.539 154.153 164.495C154.123 164.337 154.091 164.175 154.062 164.013C154.051 163.952 154.039 163.893 154.026 163.832C153.997 163.674 153.965 163.516 153.933 163.356C153.923 163.299 153.91 163.242 153.9 163.187C153.866 163.017 153.83 162.844 153.796 162.673C153.786 162.627 153.777 162.579 153.767 162.532C153.678 162.096 153.584 161.661 153.489 161.229C153.476 161.176 153.466 161.124 153.453 161.071C153.417 160.913 153.381 160.753 153.345 160.597C153.329 160.528 153.312 160.456 153.297 160.387C153.263 160.248 153.232 160.109 153.198 159.972C153.181 159.898 153.162 159.824 153.145 159.753C153.111 159.616 153.078 159.483 153.044 159.348C153.027 159.281 153.01 159.214 152.991 159.146C152.951 158.992 152.911 158.843 152.871 158.696C152.861 158.653 152.848 158.611 152.838 158.569C152.785 158.382 152.732 158.196 152.679 158.02C152.667 157.98 152.656 157.942 152.644 157.904C152.604 157.769 152.561 157.636 152.521 157.508C152.502 157.449 152.483 157.392 152.465 157.335C152.429 157.23 152.395 157.125 152.359 157.026C152.338 156.969 152.319 156.912 152.298 156.857C152.264 156.762 152.228 156.67 152.195 156.581C152.174 156.529 152.155 156.478 152.134 156.428C152.096 156.337 152.06 156.253 152.022 156.171C152.005 156.131 151.986 156.089 151.969 156.051C151.914 155.935 151.86 155.825 151.805 155.726C150.401 153.201 138.566 142.485 134.977 138.292V142.146C135.105 142.268 135.234 142.392 135.369 142.508L135.367 142.506Z" fill="#E2F3FF"/>
<path d="M154.287 165.232C154.283 165.209 154.279 165.184 154.275 165.16C154.279 165.184 154.283 165.207 154.287 165.232Z" fill="#E2F3FF"/>
<path d="M149.876 171.272L154.976 169.362C154.976 169.362 154.885 168.74 154.725 167.761L146.966 170.553C147.901 170.893 148.873 171.139 149.878 171.272H149.876Z" fill="#E2F3FF"/>
<path d="M130.852 178.4L149.876 171.272C148.871 171.139 147.899 170.893 146.964 170.553L130.38 176.521C130.507 177.14 130.633 177.768 130.757 178.402H130.852V178.4Z" fill="#A9D2FF"/>
<path d="M87.2446 169.452C87.2699 169.25 87.2973 169.052 87.3268 168.856C87.3268 168.846 87.3289 168.837 87.331 168.827C87.3563 168.658 87.3816 168.494 87.409 168.332C87.4153 168.292 87.4217 168.252 87.428 168.214C87.4575 168.041 87.487 167.871 87.5207 167.706C87.8326 166.11 90.4711 162.198 93.5712 158.02C94.0665 157.352 94.5744 156.676 95.0865 156.002C95.097 155.99 95.1076 155.977 95.116 155.962C95.1054 155.975 95.0949 155.988 95.0865 156.002C94.5744 156.676 94.0665 157.35 93.5712 158.02C90.4711 162.198 87.8305 166.11 87.5207 167.706C87.4891 167.871 87.4575 168.041 87.428 168.214C87.4217 168.254 87.4153 168.294 87.409 168.332C87.3816 168.494 87.3563 168.658 87.331 168.827C87.331 168.837 87.3289 168.846 87.3268 168.856C87.2973 169.052 87.2699 169.25 87.2446 169.452C87.2446 169.456 87.2446 169.461 87.2446 169.465C87.1919 169.878 87.1456 170.303 87.1013 170.732C87.1435 170.303 87.1898 169.878 87.2446 169.465C87.2446 169.461 87.2446 169.456 87.2446 169.452Z" fill="#E2F3FF"/>
<path d="M87.0883 170.861C87.0482 171.265 87.0145 171.672 86.9829 172.078C86.9829 172.078 86.9829 172.078 86.9829 172.08C87.0145 171.672 87.0504 171.261 87.0904 170.852C87.0904 170.855 87.0904 170.859 87.0904 170.861H87.0883Z" fill="#E2F3FF"/>
<path d="M87.0906 170.852C87.0948 170.812 87.0969 170.775 87.1011 170.734C87.0969 170.775 87.0948 170.812 87.0906 170.852Z" fill="#A9D2FF"/>
<path d="M114.395 73.8501C114.458 73.7764 114.523 73.7048 114.586 73.6374C114.523 73.7048 114.46 73.7764 114.395 73.8501Z" fill="#E2F3FF"/>
<path d="M114.109 74.1955C114.181 74.107 114.25 74.0207 114.32 73.9365C114.25 74.0186 114.178 74.1049 114.109 74.1955Z" fill="#E2F3FF"/>
<path d="M114.657 73.5615C114.739 73.4752 114.819 73.3951 114.899 73.3193C114.819 73.3951 114.737 73.4773 114.657 73.5615Z" fill="#E2F3FF"/>
<path d="M114.907 73.311C114.989 73.2331 115.072 73.1615 115.154 73.0962C115.072 73.1636 114.989 73.2331 114.907 73.311Z" fill="#E2F3FF"/>
<path d="M113.512 75.0082C113.696 74.7387 113.879 74.4881 114.058 74.2565C113.879 74.486 113.696 74.7387 113.512 75.0082Z" fill="#E2F3FF"/>
<path d="M112.313 76.9794C112.509 76.6235 112.705 76.2844 112.901 75.9644C112.707 76.2844 112.511 76.6235 112.313 76.9794Z" fill="#E2F3FF"/>
<path d="M113.23 75.4357C113.306 75.3157 113.384 75.1999 113.459 75.0883C113.384 75.202 113.308 75.3178 113.23 75.4357Z" fill="#E2F3FF"/>
<path d="M112.014 77.531C112.104 77.3604 112.195 77.192 112.286 77.0277C112.195 77.192 112.104 77.3583 112.014 77.531Z" fill="#E2F3FF"/>
<path d="M112.911 75.9434C113 75.7981 113.088 75.657 113.175 75.5201C113.086 75.657 113 75.7981 112.911 75.9434Z" fill="#E2F3FF"/>
<path d="M115.222 73.0435C115.281 72.9972 115.338 72.9551 115.394 72.9172C115.338 72.9572 115.281 72.9993 115.222 73.0435Z" fill="#E2F3FF"/>
<path d="M115.474 72.8624C115.529 72.8266 115.584 72.795 115.639 72.7656C115.584 72.795 115.529 72.8266 115.474 72.8624Z" fill="#E2F3FF"/>
<path d="M111.392 78.744C111.59 78.3396 111.79 77.948 111.988 77.5731C108.262 84.6066 104.349 97.172 104.349 102.917V178.876L110.616 178.764V98.9177C110.616 89.3952 112.422 83.5389 114.106 78.6555C113.04 78.6029 112.091 78.6639 111.39 78.744H111.392Z" fill="#A9D2FF"/>
<path d="M116.03 72.6035C115.998 72.6119 115.967 72.6182 115.935 72.6287C115.861 72.654 115.786 72.6877 115.71 72.7256C115.786 72.6877 115.861 72.654 115.935 72.6287C115.967 72.6182 115.998 72.614 116.03 72.6035Z" fill="#E2F3FF"/>
<path d="M112.899 75.9645C112.899 75.9645 112.908 75.9518 112.912 75.9433C112.908 75.9497 112.904 75.956 112.899 75.9645Z" fill="#A9D2FF"/>
<path d="M115.153 73.0965C115.177 73.0774 115.198 73.0605 115.221 73.0436C115.198 73.0605 115.177 73.0774 115.153 73.0965Z" fill="#A9D2FF"/>
<path d="M112.285 77.0281C112.294 77.0111 112.304 76.9942 112.313 76.9794C112.304 76.9963 112.294 77.0132 112.285 77.0281Z" fill="#A9D2FF"/>
<path d="M124.347 84.8403C123.245 80.5929 120.111 71.3526 116.031 72.6034C116.05 72.5992 116.069 72.5929 116.09 72.5887C115.561 74.5745 114.847 76.5244 114.111 78.6576C115.169 78.7103 116.343 78.8724 117.508 79.2452C118.775 79.6495 119.422 80.9193 119.73 82.3997C119.81 82.7808 120.022 83.1283 120.347 83.3452C120.922 83.7284 121.321 84.2423 121.439 84.7687C121.706 85.969 122.115 87.4052 122.115 88.7445C122.115 89.9448 122.589 91.8695 124.275 92.9014C124.821 93.2341 125.266 93.2762 125.976 93.5963C125.333 89.7132 124.735 86.3333 124.347 84.8403Z" fill="#A9D2FF"/>
<path d="M111.99 77.5755C111.999 77.5606 112.005 77.5458 112.014 77.531C112.005 77.5458 111.999 77.5606 111.99 77.5755Z" fill="#A9D2FF"/>
<path d="M113.175 75.52C113.192 75.4926 113.211 75.4652 113.228 75.4357C113.211 75.4631 113.192 75.4905 113.175 75.52Z" fill="#A9D2FF"/>
<path d="M113.46 75.0884C113.479 75.061 113.496 75.0336 113.515 75.0084C113.496 75.0336 113.479 75.061 113.46 75.0884Z" fill="#A9D2FF"/>
<path d="M114.584 73.6374C114.607 73.6121 114.631 73.5869 114.654 73.5616C114.631 73.5869 114.607 73.6121 114.584 73.6374Z" fill="#A9D2FF"/>
<path d="M114.319 73.9364C114.344 73.907 114.369 73.8775 114.393 73.8501C114.367 73.8796 114.342 73.907 114.319 73.9364Z" fill="#A9D2FF"/>
<path d="M114.899 73.3174C114.899 73.3174 114.905 73.311 114.907 73.3088C114.905 73.311 114.901 73.3152 114.899 73.3174Z" fill="#A9D2FF"/>
<path d="M114.058 74.2589C114.075 74.2378 114.092 74.2166 114.109 74.1954C114.092 74.2166 114.075 74.2378 114.058 74.2589Z" fill="#A9D2FF"/>
<path d="M115.394 72.9151C115.422 72.8961 115.447 72.8793 115.474 72.8624C115.447 72.8793 115.422 72.8961 115.394 72.9151Z" fill="#A9D2FF"/>
<path d="M115.636 72.7658C115.66 72.7531 115.685 72.7383 115.708 72.7277C115.685 72.7404 115.66 72.7531 115.636 72.7658Z" fill="#A9D2FF"/>
<path d="M116.031 72.6035C115.999 72.614 115.968 72.6183 115.936 72.6288C115.862 72.6541 115.786 72.6877 115.711 72.7257C115.687 72.7383 115.662 72.7509 115.639 72.7636C115.584 72.793 115.529 72.8246 115.475 72.8604C115.447 72.8773 115.422 72.8941 115.394 72.9131C115.338 72.9531 115.281 72.9952 115.222 73.0394C115.198 73.0563 115.177 73.0731 115.154 73.0921C115.072 73.1595 114.99 73.2289 114.908 73.3069C114.906 73.309 114.901 73.3132 114.899 73.3153C114.819 73.3911 114.737 73.4711 114.657 73.5574C114.634 73.5827 114.611 73.608 114.587 73.6333C114.524 73.7006 114.461 73.7722 114.396 73.8459C114.37 73.8754 114.345 73.9028 114.322 73.9323C114.252 74.0144 114.181 74.1008 114.111 74.1913C114.094 74.2124 114.077 74.2334 114.06 74.2545C113.881 74.484 113.698 74.7346 113.515 75.0063C113.496 75.0315 113.479 75.0589 113.46 75.0863C113.384 75.2 113.308 75.3158 113.23 75.4337C113.213 75.4611 113.194 75.4885 113.177 75.518C113.089 75.6548 113.003 75.7959 112.914 75.9412C112.91 75.9476 112.906 75.9539 112.901 75.9623C112.707 76.2824 112.511 76.6214 112.313 76.9773C112.305 76.9941 112.294 77.011 112.286 77.0257C112.195 77.19 112.105 77.3563 112.014 77.529C112.006 77.5438 111.999 77.5585 111.991 77.5732C111.793 77.9481 111.593 78.3398 111.395 78.7441C112.096 78.6662 113.045 78.6051 114.111 78.6556C114.847 76.5224 115.561 74.5725 116.09 72.5867C116.071 72.593 116.052 72.5972 116.031 72.6014V72.6035Z" fill="#5762FC"/>
<path d="M111.392 78.744C111.411 78.704 111.43 78.6661 111.449 78.6282C111.43 78.6682 111.409 78.704 111.39 78.744H111.392Z" fill="#E2F3FF"/>
<path d="M111.451 78.6282C111.63 78.266 111.809 77.9122 111.988 77.5753C111.809 77.9122 111.63 78.2681 111.451 78.6282Z" fill="#E2F3FF"/>
<path d="M106.562 91.4316C106.722 90.8904 106.889 90.345 107.062 89.7996C106.889 90.345 106.722 90.8904 106.562 91.4316Z" fill="#E2F3FF"/>
<path d="M106.539 91.5073C106.547 91.4821 106.554 91.4568 106.562 91.4315C106.554 91.4568 106.547 91.4821 106.539 91.5073Z" fill="#A9D2FF"/>
<path d="M107.061 89.7998C107.061 89.7998 107.063 89.7912 107.065 89.7869C107.065 89.7912 107.063 89.7955 107.061 89.7998Z" fill="#A9D2FF"/>
<path d="M115.896 88.0307C114.44 87.4453 113.004 87.2579 111.685 87.2916C110.117 87.3316 108.709 87.6896 107.622 88.0812C107.43 88.6498 107.245 89.2205 107.063 89.7891C107.063 89.7933 107.061 89.7975 107.059 89.8017C106.886 90.3471 106.72 90.8925 106.56 91.4337C106.551 91.459 106.545 91.4842 106.537 91.5095C107.588 91.0441 109.245 90.4903 111.156 90.4777C112.273 90.4713 113.476 90.6503 114.697 91.1431C115.51 91.4716 116.44 91.0862 116.808 90.2902C117.215 89.4142 116.789 88.3908 115.894 88.0307H115.896Z" fill="#5762FC"/>
<path d="M104.425 106.132V106.377C106.372 105.947 108.526 105.623 110.53 105.48C110.56 105.477 110.589 105.477 110.619 105.475V105.235C108.526 105.385 106.459 105.684 104.425 106.132Z" fill="white"/>
<path d="M110.619 105.233V105.473C111.239 105.431 111.861 105.397 112.487 105.383V116.729H112.664V105.136C111.981 105.153 111.3 105.187 110.621 105.235L110.619 105.233Z" fill="#E2F3FF"/>
<path d="M104.425 118.115V118.359C106.372 117.929 108.526 117.605 110.53 117.462C110.56 117.46 110.589 117.46 110.619 117.458V117.217C108.526 117.367 106.459 117.666 104.425 118.115Z" fill="white"/>
<path d="M110.619 117.217V117.458C111.239 117.415 111.861 117.382 112.487 117.367V131.853H112.664V117.121C111.981 117.137 111.3 117.171 110.621 117.22L110.619 117.217Z" fill="#E2F3FF"/>
<path d="M104.425 133.184V133.428C106.372 132.998 108.526 132.674 110.53 132.531C110.56 132.529 110.589 132.529 110.619 132.527V132.287C108.526 132.436 106.459 132.735 104.425 133.184Z" fill="white"/>
<path d="M110.619 132.287V132.527C111.239 132.485 111.861 132.451 112.487 132.436V147.154H112.664V132.188C111.981 132.204 111.3 132.238 110.621 132.287H110.619Z" fill="#E2F3FF"/>
<path d="M104.425 148.487V148.731C106.372 148.301 108.526 147.977 110.53 147.834C110.56 147.832 110.589 147.832 110.619 147.83V147.59C108.526 147.739 106.459 148.038 104.425 148.487Z" fill="white"/>
<path d="M110.619 147.587V147.827C111.239 147.785 111.861 147.752 112.487 147.737V162.454H112.664V147.488C111.981 147.505 111.3 147.539 110.621 147.587H110.619Z" fill="#E2F3FF"/>
<path d="M102.66 167.245C102.637 167.369 102.614 167.494 102.591 167.616C105.208 166.853 107.891 166.348 110.618 166.095V165.758C107.916 166.007 105.257 166.5 102.66 167.245Z" fill="#5762FC"/>
<path d="M104.424 132.836V133.181C106.458 132.733 108.525 132.436 110.618 132.286V131.95C108.527 132.097 106.458 132.392 104.424 132.838V132.836Z" fill="#5762FC"/>
<path d="M104.424 148.141V148.486C106.458 148.038 108.525 147.739 110.618 147.589V147.252C108.525 147.402 106.458 147.699 104.424 148.143V148.141Z" fill="#5762FC"/>
<path d="M113.739 147.476C117.499 147.476 121.187 147.956 124.759 148.899V148.552C121.185 147.617 117.499 147.141 113.739 147.141C113.491 147.141 113.244 147.145 112.995 147.149V105.185C113.242 105.18 113.491 105.176 113.739 105.176C115.204 105.176 116.658 105.252 118.1 105.395C120.353 105.62 122.572 106.021 124.749 106.595C124.744 106.482 124.738 106.364 124.732 106.242C122.561 105.675 120.346 105.279 118.1 105.056C116.658 104.913 115.206 104.839 113.739 104.839C112.694 104.839 111.653 104.879 110.618 104.953V105.288C111.297 105.239 111.977 105.206 112.66 105.189V116.781C111.977 116.798 111.297 116.832 110.618 116.88V117.217C111.297 117.169 111.977 117.135 112.66 117.118V131.851C111.977 131.867 111.297 131.901 110.618 131.947V132.284C111.297 132.236 111.977 132.202 112.66 132.185V147.151C111.977 147.168 111.297 147.202 110.618 147.25V147.587C111.297 147.539 111.977 147.505 112.66 147.488V165.615C111.977 165.647 111.297 165.697 110.618 165.758V166.095C111.297 166.032 111.977 165.982 112.66 165.95V176.38H112.997V165.937C113.543 165.916 114.091 165.904 114.641 165.904C118.087 165.904 121.469 166.306 124.761 167.1V166.754C121.469 165.969 118.087 165.569 114.641 165.569C114.091 165.569 113.543 165.582 112.997 165.603V147.482C113.244 147.478 113.493 147.474 113.741 147.474L113.739 147.476Z" fill="#A9D2FF"/>
<path d="M104.424 105.842V106.187C106.458 105.738 108.525 105.439 110.618 105.29V104.955C108.527 105.105 106.458 105.399 104.424 105.844V105.842Z" fill="#5762FC"/>
<path d="M104.424 117.767V118.112C106.458 117.664 108.525 117.367 110.618 117.217V116.88C108.525 117.028 106.458 117.325 104.424 117.769V117.767Z" fill="#5762FC"/>
<path d="M126.372 140.198C125.415 139.945 124.424 139.766 123.432 139.667C122.679 139.592 121.919 139.56 121.175 139.575H121.052V139.455V113.414H121.171C121.931 113.399 122.694 113.431 123.457 113.507C124.464 113.608 125.465 113.789 126.435 114.044L126.374 114.278C125.417 114.025 124.427 113.846 123.434 113.747C122.722 113.675 122.001 113.644 121.295 113.652V139.333C122.009 139.324 122.736 139.356 123.457 139.429C124.464 139.531 125.465 139.712 126.435 139.966L126.374 140.2L126.372 140.198Z" fill="#50DDB6"/>
<path d="M126.372 122.528C125.417 122.275 124.429 122.098 123.432 121.997C122.68 121.922 121.919 121.89 121.175 121.905L121.171 121.665C121.925 121.652 122.694 121.684 123.455 121.759C124.465 121.861 125.468 122.042 126.433 122.296L126.372 122.53V122.528Z" fill="#50DDB6"/>
<path d="M126.372 135.287C125.415 135.035 124.425 134.856 123.432 134.757C122.68 134.681 121.919 134.649 121.175 134.664L121.171 134.424C121.925 134.411 122.694 134.441 123.455 134.519C124.462 134.62 125.464 134.801 126.433 135.056L126.372 135.289V135.287Z" fill="#50DDB6"/>
<path d="M109.235 110.35C109.235 109.982 108.936 109.683 108.567 109.683C108.34 109.683 108.139 109.797 108.019 109.971C108.127 109.898 108.257 109.853 108.399 109.853C108.767 109.853 109.067 110.152 109.067 110.521C109.067 110.662 109.022 110.793 108.949 110.9C109.121 110.78 109.237 110.58 109.237 110.352L109.235 110.35Z" fill="white"/>
<path d="M107.901 110.35C107.901 110.209 107.945 110.079 108.019 109.971C107.844 110.091 107.73 110.291 107.73 110.519C107.73 110.887 108.03 111.186 108.399 111.186C108.626 111.186 108.826 111.073 108.946 110.898C108.839 110.972 108.708 111.016 108.567 111.016C108.198 111.016 107.899 110.717 107.899 110.348L107.901 110.35Z" fill="#A9D2FF"/>
<path d="M109.235 124.131C109.235 123.762 108.936 123.463 108.567 123.463C108.34 123.463 108.139 123.577 108.019 123.752C108.127 123.678 108.257 123.634 108.399 123.634C108.767 123.634 109.067 123.933 109.067 124.301C109.067 124.442 109.022 124.573 108.949 124.68C109.121 124.56 109.237 124.36 109.237 124.133L109.235 124.131Z" fill="white"/>
<path d="M107.901 124.131C107.901 123.99 107.945 123.859 108.019 123.752C107.844 123.872 107.73 124.072 107.73 124.299C107.73 124.668 108.03 124.967 108.399 124.967C108.626 124.967 108.826 124.853 108.946 124.678C108.839 124.752 108.708 124.796 108.567 124.796C108.198 124.796 107.899 124.497 107.899 124.129L107.901 124.131Z" fill="#A9D2FF"/>
<path d="M109.235 139.962C109.235 139.594 108.936 139.295 108.567 139.295C108.34 139.295 108.139 139.408 108.019 139.583C108.127 139.509 108.257 139.465 108.399 139.465C108.767 139.465 109.067 139.764 109.067 140.133C109.067 140.274 109.022 140.404 108.949 140.512C109.121 140.392 109.237 140.192 109.237 139.964L109.235 139.962Z" fill="white"/>
<path d="M107.901 139.962C107.901 139.821 107.945 139.691 108.019 139.583C107.844 139.703 107.73 139.903 107.73 140.131C107.73 140.499 108.03 140.798 108.399 140.798C108.626 140.798 108.826 140.685 108.946 140.51C108.839 140.583 108.708 140.628 108.567 140.628C108.198 140.628 107.899 140.329 107.899 139.96L107.901 139.962Z" fill="#A9D2FF"/>
<path d="M114.907 103.35C115.331 103.35 115.674 103.007 115.674 102.584C115.674 102.161 115.331 101.817 114.907 101.817C114.483 101.817 114.14 102.161 114.14 102.584C114.14 103.007 114.483 103.35 114.907 103.35Z" fill="#A9D2FF"/>
<path d="M114.907 145.877C115.331 145.877 115.674 145.534 115.674 145.111C115.674 144.688 115.331 144.344 114.907 144.344C114.483 144.344 114.14 144.688 114.14 145.111C114.14 145.534 114.483 145.877 114.907 145.877Z" fill="#A9D2FF"/>
<path d="M86.7427 177.29L92.5066 177.147C99.3685 169.513 100.416 159.873 100.496 152.235C99.2968 153.583 97.9607 155.124 96.5803 156.777C96.5403 156.825 96.5002 156.874 96.4581 156.922C95.9375 157.548 95.4128 158.188 94.888 158.839C90.3001 164.537 87.5815 167.614 86.9808 172.078C86.9303 172.745 86.886 173.409 86.8544 174.041C86.8544 174.041 86.8544 174.041 86.8544 174.043C86.827 174.584 86.8038 175.102 86.7869 175.584C86.7869 175.588 86.7869 175.593 86.7869 175.595C86.7806 175.744 86.7764 175.892 86.7722 176.033C86.7722 176.047 86.7722 176.064 86.7722 176.079C86.768 176.22 86.7638 176.359 86.7596 176.492C86.7596 176.494 86.7596 176.496 86.7596 176.498C86.7553 176.618 86.7532 176.732 86.7511 176.843V176.864C86.749 176.957 86.7469 177.043 86.7448 177.13L86.7258 178.002H86.7322C86.7322 177.901 86.7343 177.791 86.7364 177.686C86.7364 177.545 86.7406 177.406 86.7427 177.286V177.29Z" fill="#E2F3FF"/>
<path d="M95.8595 154.994C97.0165 153.486 98.1756 152.01 99.2504 150.658C99.6087 150.207 99.9564 149.771 100.294 149.352C100.359 149.27 100.422 149.192 100.487 149.112C100.424 149.192 100.359 149.272 100.294 149.352C99.9585 149.771 99.6087 150.207 99.2504 150.658C98.1756 152.01 97.0165 153.486 95.8595 154.994C95.6825 155.223 95.5076 155.455 95.3305 155.684C95.2589 155.777 95.1893 155.87 95.1177 155.962C95.1893 155.87 95.2589 155.777 95.3305 155.684C95.5054 155.453 95.6825 155.223 95.8595 154.994Z" fill="#E2F3FF"/>
<path d="M86.7257 178.608C86.7257 178.608 86.7257 178.589 86.7257 178.555V178.549C86.7257 178.549 86.7257 178.555 86.7257 178.558C86.7257 178.591 86.7257 178.61 86.7257 178.61L91.0207 178.678C91.0207 178.678 91.0207 178.678 91.0228 178.675L86.7236 178.608H86.7257Z" fill="#E2F3FF"/>
<path d="M104.515 176.346H104.513L104.469 166.247L104.386 147.985L104.37 144.346C104.37 144.346 102.802 146.229 100.622 148.941C100.576 148.998 100.53 149.057 100.483 149.114C100.53 149.057 100.576 148.998 100.622 148.941C102.802 146.229 104.37 144.346 104.37 144.346L104.386 147.985C103.524 148.897 102.14 150.386 100.494 152.237C100.414 159.875 99.3664 169.515 92.5046 177.149L104.268 176.854C104.268 176.854 104.268 176.858 104.268 176.86C104.344 177.519 104.407 178.198 104.46 178.89L91.0209 178.68C91.0209 178.68 91.0209 178.68 91.0188 178.682L104.521 178.895L104.513 176.351L104.515 176.346Z" fill="#A9D2FF"/>
<path d="M96.46 156.922C96.5 156.874 96.5401 156.826 96.5822 156.777C97.9605 155.122 99.2987 153.583 100.498 152.235C100.508 151.15 100.502 150.106 100.487 149.112C100.424 149.192 100.359 149.272 100.293 149.352C99.9584 149.771 99.6085 150.207 99.2503 150.658C98.1755 152.01 97.0164 153.486 95.8594 154.993C95.6823 155.223 95.5074 155.455 95.3304 155.684C95.2587 155.777 95.1892 155.87 95.1175 155.962C95.107 155.975 95.0965 155.987 95.088 156.002C94.5759 156.676 94.068 157.35 93.5728 158.02C90.4727 162.197 87.8321 166.11 87.5223 167.706C87.4907 167.871 87.459 168.041 87.4295 168.214C87.4232 168.254 87.4169 168.294 87.4106 168.332C87.3832 168.494 87.3579 168.658 87.3326 168.827C87.3326 168.837 87.3305 168.846 87.3284 168.856C87.2989 169.052 87.2715 169.25 87.2462 169.452C87.2462 169.456 87.2462 169.46 87.2462 169.465C87.1935 169.88 87.145 170.305 87.1029 170.734C87.0987 170.774 87.0966 170.812 87.0923 170.852C87.0523 171.259 87.0165 171.669 86.9849 172.08C87.5834 167.616 90.3041 164.539 94.8921 158.841C95.4168 158.188 95.9416 157.55 96.4621 156.925L96.46 156.922Z" fill="#A9D2FF"/>
<path d="M100.495 152.235C102.141 150.384 103.524 148.897 104.388 147.983L104.371 144.344C104.371 144.344 102.803 146.227 100.624 148.939C100.578 148.996 100.531 149.055 100.485 149.112C100.5 150.104 100.506 151.15 100.495 152.235Z" fill="#5762FC"/>
<path d="M86.7322 178.008C86.7279 178.265 86.7258 178.484 86.7258 178.549C86.7258 178.482 86.7279 178.265 86.7322 178.008Z" fill="#A9D2FF"/>
<path d="M91.0251 178.675L104.464 178.886C104.41 178.193 104.346 177.515 104.273 176.856C104.273 176.856 104.273 176.852 104.273 176.85L92.5088 177.145C92.0409 177.665 91.5499 178.174 91.0273 178.673L91.0251 178.675Z" fill="#5762FC"/>
<path d="M86.7258 178.608L91.025 178.676C91.5477 178.176 92.0408 177.665 92.5066 177.147L86.7427 177.29C86.7427 177.41 86.7385 177.549 86.7364 177.69C86.7364 177.797 86.7343 177.905 86.7322 178.006C86.7279 178.263 86.7258 178.482 86.7258 178.547V178.553C86.7258 178.587 86.7258 178.606 86.7258 178.606V178.608Z" fill="#A9D2FF"/>
<path d="M102.715 171.242L100.011 175.679C102.921 177.408 107.383 178.507 113.376 175.645L115.633 167.536V152.229H114.299L102.715 171.242Z" fill="white"/>
<path d="M100.011 175.679L98.3316 178.433L98.1862 188.105H97.1577H98.1862L112.386 179.2L113.377 175.643C107.383 178.505 102.922 177.406 100.011 175.677V175.679Z" fill="#E2F3FF"/>
<path d="M98.3335 178.433L100.013 175.679C99.5854 175.426 99.1934 175.159 98.833 174.887L97.1597 177.825V188.105H98.1881L98.3335 178.433Z" fill="#A9D2FF"/>
<path d="M102.715 171.242L114.3 152.229H115.634V150.561H112.677L103.126 167.34L98.8308 174.887C99.1912 175.157 99.5832 175.424 100.011 175.679L102.715 171.242Z" fill="#E2F3FF"/>
<path d="M34.2212 166.289C32.1537 165.942 30.0315 165.757 27.8651 165.757C6.9043 165.757 -10.0881 182.736 -10.0881 203.68H2.62615C2.62615 184.901 16.2888 169.311 34.2233 166.289H34.2212Z" fill="#E2F3FF"/>
<path d="M40.5775 165.757C38.4111 165.757 36.2889 165.94 34.2214 166.289C52.1559 169.311 65.8186 184.901 65.8186 203.68H78.5328C78.5328 182.736 61.5404 165.757 40.5796 165.757H40.5775Z" fill="white"/>
<path d="M34.2216 166.289C16.2872 169.311 2.62451 184.901 2.62451 203.68H65.8187C65.8187 184.901 52.1561 169.311 34.2216 166.289Z" fill="#E2F3FF"/>
<path d="M11.4616 221.04C26.7391 221.04 39.124 208.665 39.124 193.399C39.124 178.134 26.7391 165.758 11.4616 165.758C-3.81601 165.758 -16.2009 178.134 -16.2009 193.399C-16.2009 208.665 -3.81601 221.04 11.4616 221.04Z" fill="white"/>
<path d="M50.8685 240.568C66.1461 240.568 78.531 228.192 78.531 212.927C78.531 197.661 66.1461 185.286 50.8685 185.286C35.591 185.286 23.2061 197.661 23.2061 212.927C23.2061 228.192 35.591 240.568 50.8685 240.568Z" fill="white"/>
<path d="M16.1826 123.463C28.5049 122.863 28.9917 122.377 29.5924 110.064C30.193 122.377 30.6798 122.863 43.0021 123.463C30.6798 124.063 30.193 124.55 29.5924 136.862C28.9917 124.55 28.5049 124.063 16.1826 123.463Z" fill="#E2F3FF"/>
<path d="M153.31 68.0759C164.773 67.5179 165.226 67.0651 165.784 55.6116C166.343 67.0651 166.796 67.5179 178.258 68.0759C166.796 68.6339 166.343 69.0867 165.784 80.5402C165.226 69.0867 164.773 68.6339 153.31 68.0759Z" fill="#E2F3FF"/>
<path d="M56.3782 153.547C63.5393 153.197 63.8217 152.915 64.1694 145.762C64.5193 152.917 64.8017 153.199 71.9607 153.547C64.7996 153.896 64.5172 154.179 64.1694 161.332C63.8196 154.176 63.5372 153.894 56.3782 153.547Z" fill="white"/>
<path d="M83.6361 66.2102C84.7325 66.2102 85.6213 65.322 85.6213 64.2265C85.6213 63.1309 84.7325 62.2428 83.6361 62.2428C82.5397 62.2428 81.6509 63.1309 81.6509 64.2265C81.6509 65.322 82.5397 66.2102 83.6361 66.2102Z" fill="#E2F3FF"/>
<path d="M158.843 97.9512C160.951 97.9512 162.659 96.2438 162.659 94.1376C162.659 92.0313 160.951 90.3239 158.843 90.3239C156.735 90.3239 155.026 92.0313 155.026 94.1376C155.026 96.2438 156.735 97.9512 158.843 97.9512Z" fill="white"/>
<path d="M84.1981 112.976C84.9209 112.976 85.5069 112.391 85.5069 111.669C85.5069 110.946 84.9209 110.361 84.1981 110.361C83.4753 110.361 82.8894 110.946 82.8894 111.669C82.8894 112.391 83.4753 112.976 84.1981 112.976Z" fill="white"/>
<path d="M121.176 123.585C122.24 123.585 123.102 122.724 123.102 121.661C123.102 120.598 122.24 119.736 121.176 119.736C120.112 119.736 119.25 120.598 119.25 121.661C119.25 122.724 120.112 123.585 121.176 123.585Z" fill="#50DDB6"/>
<path d="M121.176 122.897C121.859 122.897 122.413 122.343 122.413 121.661C122.413 120.978 121.859 120.424 121.176 120.424C120.493 120.424 119.939 120.978 119.939 121.661C119.939 122.343 120.493 122.897 121.176 122.897Z" fill="white"/>
<path d="M121.176 136.136C122.24 136.136 123.102 135.274 123.102 134.211C123.102 133.148 122.24 132.286 121.176 132.286C120.112 132.286 119.25 133.148 119.25 134.211C119.25 135.274 120.112 136.136 121.176 136.136Z" fill="#50DDB6"/>
<path d="M121.176 135.447C121.859 135.447 122.413 134.894 122.413 134.211C122.413 133.529 121.859 132.975 121.176 132.975C120.493 132.975 119.939 133.529 119.939 134.211C119.939 134.894 120.493 135.447 121.176 135.447Z" fill="white"/>
<path d="M144.632 145.319H142.345V147.604H144.632V145.319Z" fill="#E2F3FF"/>
</g>
</g>
<defs>
<linearGradient id="paint0_linear_4091_50025" x1="107.771" y1="130.511" x2="99.4275" y2="130.511" gradientUnits="userSpaceOnUse">
<stop offset="0.27" stop-color="#5762FC"/>
<stop offset="0.35" stop-color="#5864FC" stop-opacity="0.98"/>
<stop offset="0.44" stop-color="#5D6AFC" stop-opacity="0.92"/>
<stop offset="0.54" stop-color="#6576FC" stop-opacity="0.82"/>
<stop offset="0.64" stop-color="#7085FC" stop-opacity="0.68"/>
<stop offset="0.75" stop-color="#7F99FD" stop-opacity="0.51"/>
<stop offset="0.87" stop-color="#91B1FE" stop-opacity="0.29"/>
<stop offset="0.98" stop-color="#A5CDFE" stop-opacity="0.04"/>
<stop offset="1" stop-color="#A9D2FF" stop-opacity="0"/>
</linearGradient>
<clipPath id="clip0_4091_50025">
<rect width="200" height="200" fill="white"/>
</clipPath>
</defs>
</svg>
